HIERARCHY
ROOT Hips
{
	OFFSET 35.553299 5.521014 98.545601
	CHANNELS 6 Xposition Yposition Zposition Xrotation Yrotation Zrotation
	JOINT spine
	{
		OFFSET 0.000000 -0.477353 8.301041
		CHANNELS 3 Xrotation Yrotation Zrotation
		JOINT spine1
		{
			OFFSET 0.000000 -0.000001 10.456497
			CHANNELS 3 Xrotation Yrotation Zrotation
			JOINT spine2
			{
				OFFSET 0.000000 -0.000002 10.019203
				CHANNELS 3 Xrotation Yrotation Zrotation
				JOINT Neck
				{
					OFFSET 0.000000 -1.226414 25.723495
					CHANNELS 3 Xrotation Yrotation Zrotation
					JOINT Head
					{
						OFFSET 0.000000 -0.000001 7.771744
						CHANNELS 3 Xrotation Yrotation Zrotation
						End Site
						{
							OFFSET 0.000000 6.203937 18.811996
						}
					}
				}
				JOINT RightShoulder
				{
					OFFSET -4.218800 0.587438 10.819992
					CHANNELS 3 Xrotation Yrotation Zrotation
					JOINT RightArm
					{
						OFFSET 0.000000 -0.000002 14.191406
						CHANNELS 3 Xrotation Yrotation Zrotation
						JOINT RightArmRoll
						{
							OFFSET 0.000000 -0.000001 7.164093
							CHANNELS 3 Xrotation Yrotation Zrotation
							JOINT RightForeArm
							{
								OFFSET 0.000000 -0.000004 20.866501
								CHANNELS 3 Xrotation Yrotation Zrotation
								JOINT RightForeArmRoll
								{
									OFFSET 0.000000 -0.000001 8.039215
									CHANNELS 3 Xrotation Yrotation Zrotation
									JOINT RightHand
									{
										OFFSET 0.000000 -0.000003 16.132996
										CHANNELS 3 Xrotation Yrotation Zrotation
										End Site
										{
											OFFSET 0.000000 0.000000 0.100006
										}
									}
								}
							}
						}
					}
				}
				JOINT LeftShoulder
				{
					OFFSET 4.218800 0.587438 10.819992
					CHANNELS 3 Xrotation Yrotation Zrotation
					JOINT LeftArm
					{
						OFFSET 0.000000 -0.000002 14.191406
						CHANNELS 3 Xrotation Yrotation Zrotation
						JOINT LeftArmRoll
						{
							OFFSET 0.000000 -0.000001 7.164093
							CHANNELS 3 Xrotation Yrotation Zrotation
							JOINT LeftForeArm
							{
								OFFSET 0.000000 -0.000004 20.866501
								CHANNELS 3 Xrotation Yrotation Zrotation
								JOINT LeftForeArmRoll
								{
									OFFSET 0.000000 -0.000001 8.039215
									CHANNELS 3 Xrotation Yrotation Zrotation
									JOINT LeftHand
									{
										OFFSET 0.000000 -0.000003 16.132996
										CHANNELS 3 Xrotation Yrotation Zrotation
										End Site
										{
											OFFSET 0.000000 0.000000 0.100006
										}
									}
								}
							}
						}
					}
				}
			}
		}
	}
	JOINT RightUpLeg
	{
		OFFSET -7.357731 1.131810 -1.349213
		CHANNELS 3 Xrotation Yrotation Zrotation
		JOINT RightUpLegRoll
		{
			OFFSET 0.000000 -0.000003 18.916801
			CHANNELS 3 Xrotation Yrotation Zrotation
			JOINT RightLeg
			{
				OFFSET 0.000000 0.000004 -23.425598
				CHANNELS 3 Xrotation Yrotation Zrotation
				JOINT RightLegRoll
				{
					OFFSET 0.000000 -0.000004 23.502304
					CHANNELS 3 Xrotation Yrotation Zrotation
					JOINT RightFoot
					{
						OFFSET 0.000000 -0.000003 19.561707
						CHANNELS 3 Xrotation Yrotation Zrotation
						JOINT RightToeBase
						{
							OFFSET 0.000000 -0.000003 16.352600
							CHANNELS 3 Xrotation Yrotation Zrotation
							End Site
							{
								OFFSET 0.006931 0.912835 7.919434
							}
						}
					}
				}
			}
		}
	}
	JOINT LeftUpLeg
	{
		OFFSET 7.357731 1.131810 -1.349213
		CHANNELS 3 Xrotation Yrotation Zrotation
		JOINT LeftUpLegRoll
		{
			OFFSET 0.000000 -0.000003 18.916901
			CHANNELS 3 Xrotation Yrotation Zrotation
			JOINT LeftLeg
			{
				OFFSET 0.000000 -0.000004 23.425499
				CHANNELS 3 Xrotation Yrotation Zrotation
				JOINT LeftLegRoll
				{
					OFFSET 0.000000 -0.000004 23.719498
					CHANNELS 3 Xrotation Yrotation Zrotation
					JOINT LeftFoot
					{
						OFFSET 0.000000 -0.000003 19.344406
						CHANNELS 3 Xrotation Yrotation Zrotation
						JOINT LeftToeBase
						{
							OFFSET 0.000000 -0.000003 16.352600
							CHANNELS 3 Xrotation Yrotation Zrotation
							End Site
							{
								OFFSET -0.031063 0.912836 7.919434
							}
						}
					}
				}
			}
		}
	}
}
MOTION
Frames: 13
Frame Time: 0.041667
39.534500 -4.725434 98.560593 -2.219532 -0.935923 2.270887 -1.181314 -0.145997 0.195279 1.640691 -0.287073 0.388960 3.285760 -0.282760 0.392440 17.648662 1.415584 -1.540898 -9.236176 0.318225 -1.545172 -4.319896 -75.128918 -6.555794 -81.390173 -112.040354 -54.143046 0.000004 -0.000003 -0.000000 0.066697 -8.333887 -0.149247 -0.000001 -0.000007 -3.062740 -5.000209 -7.998911 0.000132 6.067648 66.685828 -5.852730 -52.336854 106.433158 35.694087 -0.000003 0.000013 -0.000002 1.119991 10.854377 0.323601 0.000006 -0.000011 3.000001 -5.000228 7.998793 -0.000154 1.437659 -179.235242 -0.097035 -179.999991 0.000005 -0.992995 175.309086 -4.733163 -0.569939 0.000001 -0.000001 0.057635 68.923289 6.840437 2.283300 25.456916 -7.366473 -0.000008 -1.180538 179.001199 2.930442 -0.000005 -0.000004 -1.111720 -11.700895 3.276308 1.109628 -0.000007 0.000002 -0.161109 69.827667 -6.873352 -2.142842 25.456853 7.357260 0.000010 
39.534199 -4.722105 98.560097 -2.205915 -0.933552 2.258912 -1.183826 -0.145367 0.195261 1.635661 -0.285752 0.388927 3.280720 -0.281414 0.392386 17.659797 1.393798 -1.537407 -9.231483 0.335098 -1.541848 -4.328744 -75.130353 -6.565436 -81.434734 -112.051207 -54.234052 -0.000001 -0.000001 0.000003 0.066699 -8.371245 -0.147203 -0.000003 -0.000008 -3.062510 -5.000209 -7.998912 0.000133 6.058989 66.656957 -5.847387 -52.346286 106.428704 35.739252 -0.000002 0.000013 -0.000001 1.163086 10.878714 0.318631 0.000006 -0.000012 3.000000 -5.000230 7.998793 -0.000154 1.419904 -179.238234 -0.104596 -179.999991 0.000005 -0.992995 175.301081 -4.726138 -0.570030 0.000001 -0.000001 0.057635 68.920557 6.840450 2.283371 25.456914 -7.366473 -0.000009 -1.192704 178.997224 2.923667 -0.000005 -0.000004 -1.111720 -11.705193 3.283917 1.110259 -0.000008 0.000002 -0.161143 69.824587 -6.873354 -2.142834 25.456856 7.357261 0.000011 
39.529800 -4.722185 98.570602 -2.191559 -0.931008 2.246453 -1.186507 -0.144735 0.195287 1.630310 -0.284448 0.388981 3.275380 -0.280082 0.392419 17.670936 1.371920 -1.533778 -9.226709 0.351892 -1.538398 -4.336865 -75.132115 -6.574334 -81.481001 -112.062060 -54.327096 0.000001 -0.000003 0.000002 0.066698 -8.408854 -0.145163 -0.000001 -0.000007 -3.062300 -5.000213 -7.998911 0.000131 6.049375 66.627812 -5.841006 -52.354127 106.425255 35.782364 -0.000003 0.000012 -0.000001 1.205649 10.902847 0.313670 0.000005 -0.000012 3.000000 -5.000230 7.998793 -0.000152 1.401180 -179.242223 -0.112650 -179.999991 0.000005 -0.992995 175.292912 -4.718104 -0.570049 0.000001 -0.000001 0.057635 68.917920 6.840433 2.283330 25.456916 -7.366473 -0.000008 -1.205438 178.993221 2.916584 -0.000005 -0.000004 -1.111720 -11.709094 3.291891 1.110886 -0.000007 0.000002 -0.161166 69.821431 -6.873385 -2.142734 25.456854 7.357262 0.000011 
39.537701 -4.720146 98.567299 -2.176677 -0.928346 2.233647 -1.189284 -0.144100 0.195344 1.624750 -0.283154 0.389097 3.269809 -0.278759 0.392515 17.681970 1.349959 -1.530050 -9.221874 0.368629 -1.534851 -4.344486 -75.134164 -6.582702 -81.528533 -112.073063 -54.421598 0.000001 -0.000002 0.000002 0.066703 -8.446656 -0.143132 -0.000000 -0.000007 -3.062088 -5.000211 -7.998912 0.000133 6.039107 66.598490 -5.833919 -52.362447 106.421949 35.825640 -0.000003 0.000014 -0.000001 1.247858 10.926572 0.308714 0.000007 -0.000011 3.000001 -5.000234 7.998793 -0.000153 1.381790 -179.246225 -0.121031 -179.999991 0.000005 -0.992995 175.284620 -4.710071 -0.570074 0.000001 -0.000001 0.057635 68.915181 6.840445 2.283304 25.456912 -7.366473 -0.000008 -1.218559 178.989233 2.909289 -0.000005 -0.000004 -1.111720 -11.712799 3.300112 1.111512 -0.000006 0.000002 -0.161183 69.818228 -6.873350 -2.142825 25.456848 7.357261 0.000011 
39.537998 -4.720539 98.570396 -2.161491 -0.925619 2.220636 -1.192128 -0.143465 0.195417 1.619060 -0.281867 0.389247 3.264118 -0.277442 0.392643 17.693009 1.327972 -1.526256 -9.217013 0.385336 -1.531262 -4.351898 -75.136432 -6.590862 -81.576508 -112.084149 -54.516791 0.000004 -0.000003 0.000002 0.066698 -8.484566 -0.141094 -0.000001 -0.000007 -3.061887 -5.000210 -7.998912 0.000131 6.028469 66.568991 -5.826430 -52.374106 106.418275 35.872249 -0.000004 0.000013 0.000000 1.289850 10.950293 0.303741 0.000007 -0.000012 3.000001 -5.000232 7.998793 -0.000154 1.362013 -179.250201 -0.129595 -179.999991 0.000005 -0.992995 175.276246 -4.701055 -0.570024 0.000001 -0.000001 0.057635 68.912429 6.840421 2.283369 25.456916 -7.366473 -0.000008 -1.231917 178.985230 2.901881 -0.000005 -0.000004 -1.111720 -11.716306 3.308482 1.112135 -0.000007 0.000002 -0.161196 69.814963 -6.873376 -2.142733 25.456856 7.357261 0.000011 
39.551498 -4.745244 98.571991 -2.146240 -0.922881 2.207586 -1.194984 -0.142829 0.195497 1.613340 -0.280582 0.389407 3.258398 -0.276126 0.392783 17.704050 1.305969 -1.522446 -9.212132 0.402035 -1.527668 -4.359196 -75.138706 -6.598914 -81.624708 -112.095234 -54.612120 0.000002 -0.000003 0.000000 0.066699 -8.522496 -0.139065 -0.000001 -0.000007 -3.061700 -5.000214 -7.998911 0.000132 6.017781 66.539594 -5.818881 -52.383094 106.415208 35.915962 -0.000003 0.000012 -0.000003 1.331797 10.973909 0.298742 0.000006 -0.000011 3.000000 -5.000231 7.998793 -0.000154 1.342134 -179.254203 -0.138206 -179.999991 0.000005 -0.992995 175.267859 -4.693021 -0.570054 0.000001 -0.000001 0.057635 68.909690 6.840431 2.283340 25.456916 -7.366472 -0.000009 -1.245317 178.981228 2.894435 -0.000005 -0.000004 -1.111720 -11.719812 3.316882 1.112760 -0.000006 0.000002 -0.161207 69.811671 -6.873370 -2.142735 25.456849 7.357261 0.000011 
39.549599 -4.741236 98.570602 -2.131136 -0.920186 2.194629 -1.197814 -0.142194 0.195566 1.607680 -0.279293 0.389549 3.252738 -0.274808 0.392905 17.715096 1.283988 -1.518654 -9.207280 0.418751 -1.524103 -4.366647 -75.140960 -6.607113 -81.672308 -112.106265 -54.706830 0.000001 -0.000003 0.000001 0.066698 -8.560378 -0.137032 -0.000001 -0.000008 -3.061500 -5.000210 -7.998913 0.000132 6.007290 66.510176 -5.811553 -52.394552 106.411451 35.962373 -0.000003 0.000014 0.000000 1.373857 10.997616 0.293697 0.000006 -0.000011 3.000002 -5.000232 7.998793 -0.000153 1.322451 -179.258205 -0.146718 -179.999991 0.000005 -0.992995 175.259526 -4.684986 -0.570076 0.000001 -0.000001 0.057635 68.906944 6.840408 2.283405 25.456916 -7.366473 -0.000007 -1.258610 178.977252 2.887059 -0.000005 -0.000004 -1.111720 -11.723418 3.325212 1.113389 -0.000006 0.000002 -0.161221 69.808386 -6.873363 -2.142838 25.456851 7.357261 0.000011 
39.522999 -4.721875 98.568794 -2.116400 -0.917587 2.181922 -1.200563 -0.141560 0.195614 1.602179 -0.277996 0.389647 3.247238 -0.273482 0.392983 17.726142 1.262057 -1.514918 -9.202461 0.435507 -1.520595 -4.374445 -75.142920 -6.615671 -81.719095 -112.117262 -54.800561 0.000000 -0.000003 0.000001 0.066698 -8.598126 -0.134995 -0.000000 -0.000008 -3.061290 -5.000208 -7.998912 0.000131 5.997330 66.480847 -5.804787 -52.402864 106.408159 36.005745 -0.000003 0.000012 -0.000001 1.416198 11.021517 0.288584 0.000005 -0.000011 3.000000 -5.000232 7.998793 -0.000154 1.303259 -179.262194 -0.154994 -179.999991 0.000005 -0.992995 175.251248 -4.676966 -0.570093 0.000001 -0.000000 0.057635 68.904205 6.840419 2.283377 25.456914 -7.366473 -0.000008 -1.271623 178.973264 2.879830 -0.000005 -0.000004 -1.111720 -11.727122 3.333365 1.114017 -0.000006 0.000002 -0.161239 69.805210 -6.873360 -2.142734 25.456851 7.357260 0.000011 
39.530602 -4.728345 98.556999 -2.102269 -0.915135 2.169589 -1.203192 -0.140929 0.195627 1.596919 -0.276688 0.389678 3.241987 -0.272146 0.392991 17.737298 1.240213 -1.511274 -9.197721 0.452329 -1.517198 -4.382782 -75.144573 -6.624785 -81.764283 -112.128156 -54.892499 0.000002 -0.000002 0.000002 0.066700 -8.635657 -0.132953 -0.000002 -0.000007 -3.061071 -5.000208 -7.998914 0.000132 5.988164 66.451792 -5.798881 -52.412987 106.403938 36.051388 -0.000003 0.000012 -0.000001 1.458964 11.045709 0.283393 0.000005 -0.000011 3.000001 -5.000230 7.998793 -0.000154 1.284827 -179.266183 -0.162890 -179.999991 0.000005 -0.992995 175.243133 -4.668934 -0.571091 0.000001 -0.000001 0.057635 68.901473 6.840428 2.283346 25.456916 -7.366473 -0.000009 -1.284185 178.969261 2.872855 -0.000005 -0.000004 -1.111720 -11.731224 3.341227 1.114655 -0.000008 0.000002 -0.161266 69.802040 -6.873391 -2.142736 25.456853 7.357260 0.000011 
39.538399 -4.774586 98.563095 -2.088945 -0.912883 2.157804 -1.205646 -0.140300 0.195592 1.592019 -0.275362 0.389611 3.237076 -0.270795 0.392904 17.748547 1.218477 -1.507767 -9.193076 0.469239 -1.513949 -4.391902 -75.145803 -6.634705 -81.807382 -112.138988 -54.982005 0.000002 -0.000003 0.000003 0.066697 -8.672907 -0.130910 0.000001 -0.000007 -3.060838 -5.000207 -7.998912 0.000132 5.980061 66.423002 -5.794129 -52.419335 106.399936 36.093462 -0.000004 0.000013 -0.000001 1.502332 11.070189 0.278103 0.000007 -0.000012 3.000001 -5.000230 7.998792 -0.000153 1.267451 -179.269175 -0.170244 -179.999991 0.000005 -0.992995 175.235197 -4.661909 -0.571158 0.000001 -0.000000 0.057635 68.898843 6.840447 2.283313 25.456914 -7.366473 -0.000008 -1.296123 178.965272 2.866211 -0.000005 -0.000004 -1.111720 -11.735624 3.348695 1.115296 -0.000006 0.000002 -0.161304 69.799056 -6.873359 -2.142816 25.456853 7.357261 0.000011 
39.532200 -4.765577 98.554092 -2.076674 -0.910882 2.146702 -1.207874 -0.139675 0.195496 1.587549 -0.274013 0.389423 3.232615 -0.269423 0.392696 17.759904 1.196894 -1.504443 -9.188537 0.486263 -1.510873 -4.401936 -75.146417 -6.645581 -81.848370 -112.149643 -55.068964 0.000000 -0.000002 0.000000 0.066698 -8.709796 -0.128862 0.000000 -0.000007 -3.060603 -5.000208 -7.998914 0.000132 5.973366 66.394555 -5.790889 -52.424113 106.395393 36.134648 -0.000002 0.000013 -0.000003 1.546463 11.095161 0.272697 0.000006 -0.000012 2.999999 -5.000232 7.998793 -0.000154 1.251431 -179.272180 -0.176940 -179.999991 0.000005 -0.992995 175.227479 -4.654874 -0.571203 0.000001 -0.000001 0.057635 68.896207 6.840464 2.283279 25.456914 -7.366473 -0.000008 -1.307254 178.962267 2.859970 -0.000004 -0.000004 -1.111720 -11.740615 3.355655 1.115949 -0.000007 0.000002 -0.161356 69.796303 -6.873332 -2.142881 25.456851 7.357260 0.000011 
39.526199 -4.739537 98.549591 -2.065658 -0.909185 2.136429 -1.209835 -0.139054 0.195325 1.583618 -0.272637 0.389087 3.228676 -0.268029 0.392340 17.771365 1.175486 -1.501327 -9.184151 0.503423 -1.508027 -4.413196 -75.146397 -6.657708 -81.885977 -112.160005 -55.151988 0.000001 -0.000003 0.000002 0.066697 -8.746235 -0.126804 -0.000001 -0.000007 -3.060331 -5.000213 -7.998911 0.000133 5.968320 66.366640 -5.789434 -52.427357 106.390305 36.174844 -0.000003 0.000013 -0.000001 1.591501 11.120717 0.267151 0.000005 -0.000012 3.000001 -5.000230 7.998793 -0.000153 1.237038 -179.275172 -0.182835 -179.999991 0.000005 -0.992995 175.220061 -4.648847 -0.571306 0.000001 -0.000001 0.057635 68.893673 6.840452 2.283333 25.456916 -7.366473 -0.000009 -1.317428 178.960273 2.854221 -0.000005 -0.000004 -1.111720 -11.746203 3.362000 1.116611 -0.000006 0.000002 -0.161426 69.793660 -6.873346 -2.142847 25.456853 7.357262 0.000011 
39.524399 -4.752589 98.563690 -2.056134 -0.907843 2.127128 -1.211495 -0.138438 0.195066 1.580308 -0.271230 0.388577 3.225375 -0.266606 0.391807 17.783031 1.154288 -1.498463 -9.179936 0.520745 -1.505436 -4.425828 -75.145454 -6.671255 -81.920223 -112.170161 -55.231123 -0.000000 -0.000003 0.000002 0.066699 -8.782145 -0.124743 -0.000001 -0.000008 -3.060040 -5.000213 -7.998912 0.000130 5.965242 66.339264 -5.790102 -52.428617 106.384499 36.213847 -0.000002 0.000013 -0.000003 1.637622 11.146862 0.261452 0.000006 -0.000012 3.000000 -5.000231 7.998793 -0.000152 1.224576 -179.277166 -0.187770 -179.999991 0.000005 -0.992995 175.212999 -4.643817 -0.571464 0.000001 -0.000001 0.057635 68.891248 6.840448 2.283284 25.456916 -7.366473 -0.000008 -1.326470 178.958278 2.849070 -0.000005 -0.000004 -1.111720 -11.752483 3.367622 1.117281 -0.000006 0.000002 -0.161515 69.791235 -6.873367 -2.142802 25.456853 7.357260 0.000011 
